<svg xmlns="http://www.w3.org/2000/svg" viewBox="0 0 21.95 21.95"><defs><style>.cls-1{fill:#fbb040;}</style></defs><g id="Layer_2" data-name="Layer 2"><g id="Layer_1-2" data-name="Layer 1"><path class="cls-1" d="M11,0A11,11,0,1,0,22,11,11,11,0,0,0,11,0Zm.75,16.29V18H10.1V16.41a6.61,6.61,0,0,1-2.83-.72l.5-1.94a5.91,5.91,0,0,0,2.76.73c1,0,1.59-.37,1.59-1s-.53-1-1.76-1.45c-1.77-.59-3-1.42-3-3a3.07,3.07,0,0,1,2.81-3V4.43h1.63V5.89a5.94,5.94,0,0,1,2.41.55l-.49,1.88a5.36,5.36,0,0,0-2.39-.57c-1.08,0-1.43.47-1.43.93s.59.9,2,1.43c2,.7,2.77,1.61,2.77,3.11A3.19,3.19,0,0,1,11.73,16.29Z"/></g></g></svg>