<svg xmlns="http://www.w3.org/2000/svg" viewBox="0 0 23.5 26.23"><defs><style>.cls-1{fill:#d1d3d4;}</style></defs><g id="Layer_2" data-name="Layer 2"><g id="Layer_1-2" data-name="Layer 1"><path class="cls-1" d="M11,6.32C11,2.83,8.52,0,5.49,0S0,2.83,0,6.32a6.66,6.66,0,0,0,2.21,5.06A4.91,4.91,0,0,1,4,15.09v9.68a1.47,1.47,0,0,0,2.94,0V15.09a4.91,4.91,0,0,1,1.81-3.71A6.66,6.66,0,0,0,11,6.32Z"/><path class="cls-1" d="M22.52.93a1,1,0,0,0-1,1V8.2a.9.9,0,0,1-.9.9h0a.9.9,0,0,1-.91-.9V1.91a1,1,0,0,0-2,0V8.2a.9.9,0,0,1-.9.9h0a.9.9,0,0,1-.9-.9V1.91a1,1,0,0,0-2,0V8.77h0v2.07a1.72,1.72,0,0,0,1.72,1.72h0a1.56,1.56,0,0,1,1.56,1.56V24.77a1.47,1.47,0,0,0,2.93,0V14.12a1.56,1.56,0,0,1,1.56-1.56h0a1.72,1.72,0,0,0,1.72-1.72V8.77h0V1.91A1,1,0,0,0,22.52.93Z"/></g></g></svg>