<svg xmlns="http://www.w3.org/2000/svg" viewBox="0 0 25.53 26.66"><defs><style>.cls-1{fill:#be1e2d;}</style></defs><g id="Layer_2" data-name="Layer 2"><g id="Layer_1-2" data-name="Layer 1"><path id="Icon_awesome-cog" data-name="Icon awesome-cog" class="cls-1" d="M25.2,16.53l-2.29-1.32a10.39,10.39,0,0,0,0-3.77l2.29-1.33a.64.64,0,0,0,.29-.75,13.37,13.37,0,0,0-2.94-5.08.65.65,0,0,0-.8-.13L19.47,5.47A10.26,10.26,0,0,0,16.2,3.59V1a.65.65,0,0,0-.51-.63,13.52,13.52,0,0,0-5.87,0,.65.65,0,0,0-.5.63V3.6A10.36,10.36,0,0,0,6.05,5.48L3.77,4.16a.65.65,0,0,0-.8.12A13.28,13.28,0,0,0,0,9.37a.64.64,0,0,0,.3.75l2.29,1.32a10,10,0,0,0,0,3.77L.33,16.54a.64.64,0,0,0-.3.75A13.48,13.48,0,0,0,3,22.38a.65.65,0,0,0,.8.12l2.29-1.32a10.32,10.32,0,0,0,3.26,1.88v2.65a.66.66,0,0,0,.51.63,13.52,13.52,0,0,0,5.87,0,.65.65,0,0,0,.51-.63V23.06a10.48,10.48,0,0,0,3.27-1.88l2.29,1.32a.64.64,0,0,0,.79-.12,13.35,13.35,0,0,0,2.94-5.09.67.67,0,0,0-.3-.76ZM12.76,17.62a4.3,4.3,0,1,1,4.3-4.3h0A4.3,4.3,0,0,1,12.76,17.62Z"/></g></g></svg>