<svg xmlns="http://www.w3.org/2000/svg" viewBox="0 0 30 23.34"><defs><style>.cls-1{fill:#04a322;}</style></defs><g id="Layer_2" data-name="Layer 2"><g id="Layer_1-2" data-name="Layer 1"><path id="Icon_awesome-home" data-name="Icon awesome-home" class="cls-1" d="M14.6,6.06,5,14v8.54a.83.83,0,0,0,.83.83h0l5.84,0a.83.83,0,0,0,.83-.83v-5a.83.83,0,0,1,.83-.83h3.34a.83.83,0,0,1,.83.83h0v5a.84.84,0,0,0,.83.84h0l5.84,0a.84.84,0,0,0,.83-.83V14l-9.6-7.9A.63.63,0,0,0,14.6,6.06Zm15.17,5.37L25.42,7.84V.63A.63.63,0,0,0,24.79,0H21.88a.63.63,0,0,0-.63.63V4.41L16.59.57a2.5,2.5,0,0,0-3.18,0L.23,11.43a.62.62,0,0,0-.09.88l1.33,1.62a.63.63,0,0,0,.88.08L14.61,3.92a.62.62,0,0,1,.79,0L27.65,14a.63.63,0,0,0,.88-.08l1.33-1.62A.62.62,0,0,0,29.77,11.43Z"/></g></g></svg>