<svg xmlns="http://www.w3.org/2000/svg" viewBox="0 0 27.26 21.67"><defs><style>.cls-1{fill:#27aae1;}</style></defs><g id="Layer_2" data-name="Layer 2"><g id="Layer_1-2" data-name="Layer 1"><path id="Icon_material-people" data-name="Icon material-people" class="cls-1" d="M18.59,7.43a3.72,3.72,0,1,0-3.72-3.71h0a3.69,3.69,0,0,0,3.68,3.71Zm-9.92,0A3.72,3.72,0,1,0,5,3.72H5A3.69,3.69,0,0,0,8.64,7.43Zm0,2.48C5.78,9.91,0,11.36,0,14.25v5.64a1.78,1.78,0,0,0,1.78,1.78H15.57a1.77,1.77,0,0,0,1.77-1.78V14.25c0-2.89-5.78-4.34-8.67-4.34Zm9.92,0c-.36,0-.77,0-1.21.06a5.23,5.23,0,0,1,2.44,4.28V19.9a1.78,1.78,0,0,0,1.78,1.77h3.88a1.78,1.78,0,0,0,1.78-1.77V14.25C27.26,11.36,21.47,9.91,18.59,9.91Z"/></g></g></svg>