<svg xmlns="http://www.w3.org/2000/svg" viewBox="0 0 20.14 20.14"><defs><style>.cls-1{fill:#d1d3d4;}</style></defs><g id="Layer_2" data-name="Layer 2"><g id="Layer_1-2" data-name="Layer 1"><path class="cls-1" d="M.4,17.81a1.37,1.37,0,0,0,0,1.93,1.35,1.35,0,0,0,1.93,0l10.05-10a.63.63,0,0,0,0-.9l-1-1a.63.63,0,0,0-.9,0Z"/><path class="cls-1" d="M20.14,15.47h0A15.43,15.43,0,0,0,17.82,8L15.66,4.48,12.19,2.32A15.4,15.4,0,0,0,4.67,0h0A3.19,3.19,0,0,0,2.3.93a15.66,15.66,0,0,1,8.26,4.34l2.16,2.15,2.16,2.16a15.73,15.73,0,0,1,4.34,8.26A3.21,3.21,0,0,0,20.14,15.47Z"/></g></g></svg>