<svg xmlns="http://www.w3.org/2000/svg" viewBox="0 0 25.52 25.52"><defs><style>.cls-1{fill:#d1d3d4;}</style></defs><g id="Layer_2" data-name="Layer 2"><g id="Layer_1-2" data-name="Layer 1"><path class="cls-1" d="M5.25,20.27l.82-.81L9.2,22.59l3.92-3.92L10,15.54l.81-.82,3.14,3.14,3.92-3.92L14.72,10.8l.82-.81,3.13,3.13L22.59,9.2,19.46,6.07l.81-.82,3.14,3.14,1.67-1.67a1.53,1.53,0,0,0,0-2.15L21,.44a1.51,1.51,0,0,0-2.14,0L.44,18.81A1.51,1.51,0,0,0,.44,21l4.13,4.13a1.53,1.53,0,0,0,2.15,0l1.67-1.67Z"/></g></g></svg>